<svg width="28" height="28" viewBox="0 0 28 28" fill="none" xmlns="http://www.w3.org/2000/svg">
<path d="M0 0H5.6V5.6H5C2.23858 5.6 0 3.36142 0 0.6V0Z" fill="#3EC6E0"/>
<path d="M11.2 0H16.8V5.6H16.2C13.4386 5.6 11.2 3.36142 11.2 0.6V0Z" fill="#3EC6E0"/>
<path d="M22.4 0H28V5.6H27.4C24.6386 5.6 22.4 3.36142 22.4 0.6V0Z" fill="#3EC6E0"/>
<path d="M22.4 11.2H28V16.8H27.4C24.6386 16.8 22.4 14.5614 22.4 11.8V11.2Z" fill="#3EC6E0"/>
<path d="M11.2 11.2H16.8V16.8H16.2C13.4386 16.8 11.2 14.5614 11.2 11.8V11.2Z" fill="#3EC6E0"/>
<path d="M0 11.2H5.6V16.8H5C2.23858 16.8 0 14.5614 0 11.8V11.2Z" fill="#3EC6E0"/>
<path d="M0 22.4H5.6V28H5C2.23858 28 0 25.7614 0 23V22.4Z" fill="#3EC6E0"/>
<path d="M11.2 22.4H16.8V28H16.2C13.4386 28 11.2 25.7614 11.2 23V22.4Z" fill="#3EC6E0"/>
<path d="M22.4 22.4H28V28H27.4C24.6386 28 22.4 25.7614 22.4 23V22.4Z" fill="#3EC6E0"/>
</svg>
