<?xml version="1.0" encoding="UTF-8" standalone="no"?>
<svg
   xmlns:dc="http://purl.org/dc/elements/1.1/"
   xmlns:cc="http://creativecommons.org/ns#"
   xmlns:rdf="http://www.w3.org/1999/02/22-rdf-syntax-ns#"
   xmlns:svg="http://www.w3.org/2000/svg"
   xmlns="http://www.w3.org/2000/svg"
   xmlns:sodipodi="http://sodipodi.sourceforge.net/DTD/sodipodi-0.dtd"
   xmlns:inkscape="http://www.inkscape.org/namespaces/inkscape"
   width="22.125"
   height="26"
   viewBox="0 0 22.125 26"
   version="1.1"
   id="svg3"
   sodipodi:docname="shopping-bag-solid.svg"
   inkscape:version="0.92.3 (2405546, 2018-03-11)">
  <metadata
     id="metadata9">
    <rdf:RDF>
      <cc:Work
         rdf:about="">
        <dc:format>image/svg+xml</dc:format>
        <dc:type
           rdf:resource="http://purl.org/dc/dcmitype/StillImage" />
      </cc:Work>
    </rdf:RDF>
  </metadata>
  <defs
     id="defs7" />
  <sodipodi:namedview
     pagecolor="#ffffff"
     bordercolor="#666666"
     borderopacity="1"
     objecttolerance="10"
     gridtolerance="10"
     guidetolerance="10"
     inkscape:pageopacity="0"
     inkscape:pageshadow="2"
     inkscape:window-width="716"
     inkscape:window-height="480"
     id="namedview5"
     showgrid="false"
     inkscape:zoom="9.0769231"
     inkscape:cx="11.0625"
     inkscape:cy="13"
     inkscape:window-x="502"
     inkscape:window-y="148"
     inkscape:window-maximized="0"
     inkscape:current-layer="svg3" />
  <path
     id="shopping-bag-solid"
     d="M16,3a5.02,5.02,0,0,0-5,5V9H6.063L6,9.938l-1,18L4.938,29H27.063L27,27.938l-1-18L25.938,9H21V8A5.02,5.02,0,0,0,16,3Zm0,2a3,3,0,0,1,3,3V9H13V8A3,3,0,0,1,16,5ZM7.938,11H11v3h2V11h6v3h2V11h3.063l.875,16H7.063Z"
     transform="translate(-4.938 -3)"
     fill="#fff"
     style="fill:#000000" />
</svg>
